:SAMPLES-PER-SECOND 30
:FULLY-SPECIFIED
:DEGREES
73
root  -35.1709 38.6214 -27.2803 -157.338 -82.5422 166.499
RightUpLeg  -39.6677 -13.9827 -1.91054
RightLeg  16.6521 -0.20838 0.0424903
RightFoot  5.41993 -0.953644 6.85151
RightToes  0.00048216 0.542163 -0.142577
Spine  51.8602 -4.06571 5.47725
Spine1  15.2904 0.820339 -5.62886
HEad  -22.9593 -4.94159 -4.67755
LeftShoulder1  10.094 -20.7352 -35.5038
LeftArm  -19.1943 -38.5192 -21.6835
LeftForeArm  20.8005 -10.8061 -5.54609
LeftHand  -0.25398 0.0180481 5.50724
RightShoulder  4.89146 13.2548 22.9503
RightArm  -23.9701 54.296 20.9023
RightForeArm  5.37174 -0.933186 5.83206
RightHand  -0.616882 1.88479 -10.0407
LeftUpLeg  -38.7631 24.4756 -18.5977
LeftLeg  21.6142 -0.7815 0.000406795
LeftFoot  2.84573 -1.83155 14.495
LeftToes  1.06244e-005 4.65856e-005 -8.18505e-006
74
root  -35.6096 38.5213 -28.0497 -133 -85.0378 143.764
RightUpLeg  -41.4506 -16.7471 -1.09551
RightLeg  15.8382 -1.95799 0.216402
RightFoot  9.66664 -0.147904 1.17332
RightToes  0.00048216 0.542163 -0.142577
Spine  55.2092 -4.12871 5.98191
Spine1  13.8321 0.552584 -4.36728
HEad  -25.0822 -7.55044 -2.5466
LeftShoulder1  10.2837 -22.7118 -33.0761
LeftArm  -21.8854 -44.3333 -20.9986
LeftForeArm  22.5392 -8.16974 -5.36011
LeftHand  -0.25398 0.0180481 5.50724
RightShoulder  4.86494 13.1285 23.0164
RightArm  -26.5845 54.4209 15.7902
RightForeArm  4.90372 -0.847198 5.92725
RightHand  -0.653112 2.62491 -9.70366
LeftUpLeg  -40.5517 22.6823 -19.302
LeftLeg  23.6156 -2.05644 -0.648868
LeftFoot  2.68411 -1.75829 14.0824
LeftToes  1.06244e-005 4.65856e-005 -8.18505e-006
75
root  -36.0709 38.3359 -28.7989 -96.8133 -86.4118 109.931
RightUpLeg  -45.6352 -19.8809 1.86386
RightLeg  19.126 -1.29709 -0.304693
RightFoot  12.0168 0.837531 -3.70208
RightToes  0.00048216 0.542163 -0.142577
Spine  58.1626 -4.75868 7.09066
Spine1  11.785 0.492613 -4.2934
HEad  -27.7465 -9.32801 -0.580912
LeftShoulder1  9.97332 -24.2112 -29.7723
LeftArm  -24.4354 -49.936 -19.721
LeftForeArm  22.5388 -5.71344 -4.92422
LeftHand  -0.25398 0.0180481 5.50724
RightShoulder  4.76135 13.2486 22.1412
RightArm  -29.6178 54.6481 11.3741
RightForeArm  4.42308 -0.893042 5.77606
RightHand  -0.624468 2.95696 -8.94567
LeftUpLeg  -43.8891 21.2985 -19.7817
LeftLeg  26.6529 -2.74679 -1.15711
LeftFoot  2.03144 -1.58253 13.3246
LeftToes  1.06244e-005 4.65856e-005 -8.18505e-006
76
root  -36.5844 38.121 -29.452 -60.7736 -87.0646 77.1406
RightUpLeg  -50.9074 -21.4459 5.53136
RightLeg  23.0993 -0.0391268 -0.281474
RightFoot  11.1161 1.21569 -5.73436
RightToes  0.00048216 0.542163 -0.142577
Spine  59.7276 -5.53629 8.60757
Spine1  11.3091 0.938376 -5.09943
HEad  -31.7039 -10.1731 0.887944
LeftShoulder1  9.42441 -25.328 -26.3769
LeftArm  -29.4094 -55.6876 -15.3734
LeftForeArm  21.4241 -3.89299 -4.31608
LeftHand  -0.25398 0.0180481 5.50724
RightShoulder  4.54656 13.4968 20.3427
RightArm  -34.8151 55.9451 6.03197
RightForeArm  3.27046 -1.39386 5.23085
RightHand  -0.56986 2.95657 -8.19549
LeftUpLeg  -48.8797 21.1152 -20.3613
LeftLeg  30.1643 -2.67622 -1.32864
LeftFoot  0.971019 -1.3861 12.7411
LeftToes  1.06244e-005 4.65856e-005 -8.18505e-006
77
root  -37.1072 37.9216 -30.0395 -25.4306 -87.4472 45.4117
RightUpLeg  -56.1433 -22.4122 9.95171
RightLeg  26.1485 0.754112 0.17152
RightFoot  8.38104 1.16937 -6.38116
RightToes  0.00048216 0.542163 -0.142577
Spine  60.4478 -5.66017 9.7879
Spine1  12.2171 1.72525 -5.24167
HEad  -36.2747 -10.455 1.67827
LeftShoulder1  9.13963 -26.5966 -23.911
LeftArm  -38.2846 -60.3753 -6.96635
LeftForeArm  20.1906 -3.35135 -3.31104
LeftHand  -0.25398 0.0180481 5.50724
RightShoulder  4.31119 13.7674 18.4342
RightArm  -42.7572 57.7362 -1.79334
RightForeArm  1.18758 -2.09683 4.42276
RightHand  -0.569542 3.19529 -7.98138
LeftUpLeg  -54.8431 22.0871 -21.7013
LeftLeg  33.5215 -1.79348 -0.914637
LeftFoot  0.221808 -1.26731 12.4512
LeftToes  1.06244e-005 4.65856e-005 -8.18505e-006
78
root  -37.6099 37.7103 -30.609 1.17606 -87.0684 22.409
RightUpLeg  -61.1531 -23.2058 14.5147
RightLeg  28.4577 1.24911 0.495992
RightFoot  6.12866 1.12369 -7.02502
RightToes  0.00048216 0.542163 -0.142577
Spine  62.4453 -5.31497 9.81025
Spine1  10.5827 1.95106 -4.53736
HEad  -39.2019 -9.78229 1.73197
LeftShoulder1  9.139 -27.3542 -23.1179
LeftArm  -48.1447 -62.4099 2.93175
LeftForeArm  18.9073 -3.89819 -2.29836
LeftHand  -0.25398 0.0180481 5.50724
RightShoulder  4.36077 14.6162 17.4492
RightArm  -50.1915 58.7447 -9.67083
RightForeArm  -1.28114 -2.38946 3.86421
RightHand  -0.627074 3.85808 -8.18626
LeftUpLeg  -60.9803 23.1844 -24.2019
LeftLeg  36.4275 -0.327148 0.111505
LeftFoot  -0.0727281 -1.19944 12.1123
LeftToes  1.06244e-005 4.65856e-005 -8.18505e-006
79
root  -38.0974 37.4818 -31.139 11.8028 -86.2434 15.0517
RightUpLeg  -65.6757 -23.268 17.82
RightLeg  30.8733 1.43006 0.677424
RightFoot  4.82299 1.19339 -8.15073
RightToes  0.00048216 0.542163 -0.142577
Spine  64.6579 -4.98713 9.6452
Spine1  8.41301 2.10794 -4.01718
HEad  -41.184 -9.40216 1.73184
LeftShoulder1  8.89844 -28.2914 -21.3729
LeftArm  -57.4741 -63.159 11.1246
LeftForeArm  16.7583 -4.19605 -0.930861
LeftHand  -0.25398 0.0180481 5.50724
RightShoulder  4.37551 14.9924 17.003
RightArm  -56.8947 59.222 -16.8588
RightForeArm  -4.04269 -1.96808 3.52663
RightHand  -0.660303 4.52189 -8.07778
LeftUpLeg  -66.1723 23.7152 -27.0917
LeftLeg  38.5711 0.958442 1.19395
LeftFoot  -0.67705 -1.0977 11.7584
LeftToes  1.06244e-005 4.65856e-005 -8.18505e-006
80
root  -38.5791 37.2548 -31.5839 18.7208 -85.449 11.092
RightUpLeg  -69.7293 -22.6606 20.1928
RightLeg  33.4877 1.38829 0.731895
RightFoot  3.53227 1.28931 -9.6672
RightToes  0.00048216 0.542163 -0.142577
Spine  66.7111 -5.14998 9.70798
Spine1  6.47122 2.26305 -4.42915
HEad  -42.573 -9.18542 1.73494
LeftShoulder1  8.37651 -28.957 -19.0329
LeftArm  -65.9418 -63.2906 19.0797
LeftForeArm  12.7022 -3.80407 0.216188
LeftHand  -0.25398 0.0180481 5.50724
RightShoulder  4.27577 15.0374 16.3554
RightArm  -63.0669 59.5155 -22.7351
RightForeArm  -7.03592 -1.23446 3.17698
RightHand  -0.671961 5.10405 -7.80272
LeftUpLeg  -70.1158 23.8246 -29.46
LeftLeg  39.8289 1.46535 1.69217
LeftFoot  -2.22485 -0.935809 11.8743
LeftToes  1.06244e-005 4.65856e-005 -8.18505e-006
81
root  -39.0575 37.0273 -31.9433 27.5933 -84.8274 5.03321
RightUpLeg  -73.3826 -21.8833 22.7426
RightLeg  35.8146 1.19331 0.659002
RightFoot  1.84259 1.30619 -11.1468
RightToes  0.00048216 0.542163 -0.142577
Spine  68.3182 -5.4553 9.88944
Spine1  5.23009 2.47624 -5.25052
HEad  -43.6799 -8.93051 1.71871
LeftShoulder1  7.81663 -29.416 -16.812
LeftArm  -72.9655 -62.5603 26.9805
LeftForeArm  7.26812 -3.23978 0.896012
LeftHand  -0.25398 0.0180481 5.50724
RightShoulder  4.07929 15.1942 14.999
RightArm  -68.5998 59.3841 -27.3002
RightForeArm  -10.7121 -0.642503 2.68971
RightHand  -0.79242 6.24593 -8.29066
LeftUpLeg  -73.4548 23.6952 -30.9285
LeftLeg  40.7701 1.39944 1.68231
LeftFoot  -4.25038 -0.738641 12.279
LeftToes  1.06244e-005 4.65856e-005 -8.18505e-006
82
root  -39.5081 36.8136 -32.2529 36.014 -84.3145 -0.873249
RightUpLeg  -76.4285 -21.272 25.4998
RightLeg  37.5909 1.13931 0.666818
RightFoot  0.249207 1.22966 -12.0321
RightToes  0.00048216 0.542163 -0.142577
Spine  69.7315 -5.40035 9.83232
Spine1  4.04378 2.64455 -5.6154
HEad  -44.5042 -8.45134 1.67954
LeftShoulder1  7.22596 -29.7872 -14.5978
LeftArm  -77.175 -61.0075 32.3534
LeftForeArm  2.13237 -3.06155 1.37619
LeftHand  -0.25398 0.0180481 5.50724
RightShoulder  3.75642 15.585 12.6461
RightArm  -71.7485 58.6083 -29.308
RightForeArm  -15.1556 -0.104442 2.25441
RightHand  -1.06856 8.10502 -9.62033
LeftUpLeg  -76.5732 23.3075 -31.429
LeftLeg  42.1546 1.26154 1.62099
LeftFoot  -5.56619 -0.57615 12.0338
LeftToes  1.06244e-005 4.65856e-005 -8.18505e-006
83
root  -39.9019 36.6435 -32.5354 40.2199 -83.9222 -3.12567
RightUpLeg  -78.8266 -20.8577 27.6296
RightLeg  39.1355 1.33441 0.880415
RightFoot  -0.909662 1.10994 -12.1613
RightToes  0.00048216 0.542163 -0.142577
Spine  71.3057 -4.97819 9.32662
Spine1  2.4342 2.62061 -5.39919
HEad  -45.0891 -7.68361 1.61487
LeftShoulder1  6.41958 -29.8091 -11.9393
LeftArm  -78.9445 -59.4345 34.4116
LeftForeArm  -1.54829 -3.21082 1.91817
LeftHand  -0.25398 0.0180481 5.50724
RightShoulder  3.25193 15.8734 9.42541
RightArm  -72.3257 57.6214 -28.0723
RightForeArm  -19.4132 0.776898 1.90543
RightHand  -1.30441 9.75349 -10.4677
LeftUpLeg  -79.2409 22.7947 -31.3444
LeftLeg  44.0029 1.11811 1.56354
LeftFoot  -5.68889 -0.502581 10.8578
LeftToes  1.06244e-005 4.65856e-005 -8.18505e-006
84
root  -40.2376 36.5112 -32.7762 41.0211 -83.7263 -2.39286
RightUpLeg  -80.8969 -20.4542 28.9449
RightLeg  40.7272 1.47619 1.06733
RightFoot  -1.71326 1.00241 -11.983
RightToes  0.00048216 0.542163 -0.142577
Spine  72.7303 -4.51706 8.58302
Spine1  1.03209 2.46031 -5.19724
HEad  -45.6734 -6.81131 1.55998
LeftShoulder1  5.45634 -29.3083 -9.04752
LeftArm  -79.9258 -58.4137 34.8765
LeftForeArm  -4.19771 -3.60517 2.412
LeftHand  -0.25398 0.0180481 5.50724
RightShoulder  2.72015 15.8735 6.35691
RightArm  -73.0145 56.7834 -25.2585
RightForeArm  -22.1303 2.36447 1.32045
RightHand  -1.25024 10.4672 -9.62561
LeftUpLeg  -81.3029 22.4041 -31.3968
LeftLeg  45.5639 0.855873 1.35277
LeftFoot  -5.47685 -0.469452 9.77736
LeftToes  1.06244e-005 4.65856e-005 -8.18505e-006
85
root  -40.5331 36.3884 -32.9449 42.4565 -83.6312 -2.33454
RightUpLeg  -82.8472 -19.9037 30.0913
RightLeg  42.1401 1.43845 1.09127
RightFoot  -2.20232 0.953396 -12.0571
RightToes  0.00048216 0.542163 -0.142577
Spine  73.3614 -4.26881 8.02857
Spine1  0.741202 2.33722 -5.46866
HEad  -46.4626 -6.0425 1.51957
LeftShoulder1  4.64721 -28.5331 -6.71252
LeftArm  -81.4506 -57.8451 35.2037
LeftForeArm  -6.71082 -4.71983 2.81941
LeftHand  -0.25398 0.0180481 5.50724
RightShoulder  2.39875 15.7413 4.5886
RightArm  -75.7404 55.9425 -23.0404
RightForeArm  -22.8445 5.1511 0.51151
RightHand  -0.926899 10.4584 -7.27772
LeftUpLeg  -82.9471 22.1434 -31.8615
LeftLeg  46.2931 0.626545 1.12553
LeftFoot  -6.00402 -0.416994 9.71334
LeftToes  1.06244e-005 4.65856e-005 -8.18505e-006
